<mxfile host="app.diagrams.net" modified="2022-06-10T00:54:23.397Z" agent="5.0 (Windows NT 10.0; Win64; x64) AppleWebKit/537.36 (KHTML, like Gecko) Chrome/101.0.4951.67 Safari/537.36" etag="neSXx9pkJsKulrFIxbQ_" version="18.1.2" type="github" pages="3">
  <diagram id="etNqT0bQUPXkj23zkjb7" name="LOGO">
    <mxGraphModel dx="1038" dy="539" grid="1" gridSize="10" guides="1" tooltips="1" connect="1" arrows="1" fold="1" page="1" pageScale="1" pageWidth="850" pageHeight="1100" math="0" shadow="0">
      <root>
        <mxCell id="0" />
        <mxCell id="1" parent="0" />
        <mxCell id="GV_92pGTjidX0dI4lQro-17" value="" style="group" parent="1" vertex="1" connectable="0">
          <mxGeometry x="340" y="203" width="130" height="157" as="geometry" />
        </mxCell>
        <mxCell id="GV_92pGTjidX0dI4lQro-15" value="" style="rounded=1;whiteSpace=wrap;html=1;fontSize=17;strokeWidth=0;fillColor=#FFFF00;gradientDirection=west;dashed=1;strokeColor=#d6b656;" parent="GV_92pGTjidX0dI4lQro-17" vertex="1">
          <mxGeometry width="130" height="157" as="geometry" />
        </mxCell>
        <mxCell id="GV_92pGTjidX0dI4lQro-1" value="" style="shape=image;html=1;verticalAlign=top;verticalLabelPosition=bottom;labelBackgroundColor=#ffffff;imageAspect=0;aspect=fixed;image=https://cdn3.iconfinder.com/data/icons/essential-pack/32/24-Computer-Process-128.png" parent="GV_92pGTjidX0dI4lQro-17" vertex="1">
          <mxGeometry x="42.25" y="38.326470588235296" width="56.33529411764706" height="56.33529411764706" as="geometry" />
        </mxCell>
        <mxCell id="GV_92pGTjidX0dI4lQro-8" value="" style="shape=image;html=1;verticalAlign=top;verticalLabelPosition=bottom;labelBackgroundColor=#ffffff;imageAspect=0;aspect=fixed;image=https://cdn1.iconfinder.com/data/icons/bootstrap-vol-3/16/filetype-ai-128.png;fillColor=default;gradientColor=#ffffff;gradientDirection=west;" parent="GV_92pGTjidX0dI4lQro-17" vertex="1">
          <mxGeometry x="11.142857142857142" y="7.3882352941176475" width="118.21176470588236" height="118.21176470588236" as="geometry" />
        </mxCell>
        <mxCell id="GV_92pGTjidX0dI4lQro-14" value="&lt;b&gt;&lt;font style=&quot;font-size: 17px;&quot;&gt;SWE&lt;/font&gt;&lt;/b&gt;" style="text;html=1;strokeColor=none;fillColor=none;align=center;verticalAlign=middle;whiteSpace=wrap;rounded=0;" parent="GV_92pGTjidX0dI4lQro-17" vertex="1">
          <mxGeometry x="30.642857142857142" y="12.005882352941176" width="55.714285714285715" height="27.705882352941178" as="geometry" />
        </mxCell>
        <mxCell id="GV_92pGTjidX0dI4lQro-16" value="&lt;font color=&quot;#999999&quot; size=&quot;1&quot; face=&quot;Georgia&quot;&gt;&lt;b style=&quot;font-size: 15px;&quot;&gt;SWEAILab&lt;/b&gt;&lt;/font&gt;" style="text;html=1;strokeColor=none;fillColor=none;align=center;verticalAlign=middle;whiteSpace=wrap;rounded=0;dashed=1;fontSize=17;" parent="GV_92pGTjidX0dI4lQro-17" vertex="1">
          <mxGeometry x="37.60714285714286" y="129.29411764705884" width="55.714285714285715" height="27.705882352941178" as="geometry" />
        </mxCell>
      </root>
    </mxGraphModel>
  </diagram>
  <diagram id="ddHBEYrLRBmYKL7CS2Vo" name="GeneralOverview">
    <mxGraphModel dx="532" dy="276" grid="1" gridSize="10" guides="1" tooltips="1" connect="1" arrows="1" fold="1" page="1" pageScale="1" pageWidth="850" pageHeight="1100" math="0" shadow="0">
      <root>
        <mxCell id="0" />
        <mxCell id="1" parent="0" />
        <mxCell id="Zp2dqgJfaOYoI4d0qeHx-6" style="edgeStyle=orthogonalEdgeStyle;rounded=0;orthogonalLoop=1;jettySize=auto;html=1;" edge="1" parent="1" source="Zp2dqgJfaOYoI4d0qeHx-2" target="Zp2dqgJfaOYoI4d0qeHx-4">
          <mxGeometry relative="1" as="geometry" />
        </mxCell>
        <mxCell id="Zp2dqgJfaOYoI4d0qeHx-2" value="&lt;b&gt;BSM&lt;/b&gt;" style="shape=process;whiteSpace=wrap;html=1;backgroundOutline=1;size=0.16666666666666669;fillColor=#f8cecc;strokeColor=#b85450;" vertex="1" parent="1">
          <mxGeometry x="240" y="80" width="120" height="60" as="geometry" />
        </mxCell>
        <mxCell id="Zp2dqgJfaOYoI4d0qeHx-15" style="rounded=0;orthogonalLoop=1;jettySize=auto;html=1;entryX=-0.017;entryY=0.666;entryDx=0;entryDy=0;startArrow=none;startFill=0;endArrow=classic;endFill=1;exitX=1;exitY=0.75;exitDx=0;exitDy=0;entryPerimeter=0;dashed=1;" edge="1" parent="1">
          <mxGeometry relative="1" as="geometry">
            <mxPoint x="353.42857142857144" y="247.14285714285717" as="sourcePoint" />
            <mxPoint x="424.96000000000004" y="247.28000000000003" as="targetPoint" />
          </mxGeometry>
        </mxCell>
        <mxCell id="Zp2dqgJfaOYoI4d0qeHx-4" value="&lt;b&gt;&lt;span style=&quot;&quot;&gt;Monitoring&lt;/span&gt;&lt;br style=&quot;&quot;&gt;&lt;span style=&quot;&quot;&gt;Component&lt;/span&gt;&lt;/b&gt;" style="shape=hexagon;perimeter=hexagonPerimeter2;whiteSpace=wrap;html=1;fixedSize=1;fillColor=#dae8fc;strokeColor=#6c8ebf;" vertex="1" parent="1">
          <mxGeometry x="240" y="190" width="120" height="80" as="geometry" />
        </mxCell>
        <mxCell id="Zp2dqgJfaOYoI4d0qeHx-5" value="&lt;b&gt;PSM&lt;/b&gt;" style="shape=document;whiteSpace=wrap;html=1;boundedLbl=1;fillColor=#fff2cc;strokeColor=#d6b656;" vertex="1" parent="1">
          <mxGeometry x="425" y="194" width="120" height="80" as="geometry" />
        </mxCell>
        <mxCell id="Zp2dqgJfaOYoI4d0qeHx-13" style="rounded=0;orthogonalLoop=1;jettySize=auto;html=1;entryX=0.958;entryY=0.614;entryDx=0;entryDy=0;entryPerimeter=0;" edge="1" parent="1">
          <mxGeometry relative="1" as="geometry">
            <mxPoint x="421" y="214" as="sourcePoint" />
            <mxPoint x="352.9599999999998" y="214.12000000000012" as="targetPoint" />
          </mxGeometry>
        </mxCell>
        <mxCell id="Zp2dqgJfaOYoI4d0qeHx-17" style="edgeStyle=none;rounded=0;orthogonalLoop=1;jettySize=auto;html=1;entryX=1;entryY=0.5;entryDx=0;entryDy=0;startArrow=none;startFill=0;endArrow=classic;endFill=1;exitX=0.082;exitY=0.498;exitDx=0;exitDy=0;exitPerimeter=0;dashed=1;" edge="1" parent="1">
          <mxGeometry relative="1" as="geometry">
            <mxPoint x="419.84000000000003" y="97.83999999999997" as="sourcePoint" />
            <mxPoint x="360" y="98" as="targetPoint" />
          </mxGeometry>
        </mxCell>
        <mxCell id="Zp2dqgJfaOYoI4d0qeHx-16" value="&lt;b&gt;ENV&lt;/b&gt;" style="ellipse;shape=cloud;whiteSpace=wrap;html=1;fillColor=#f5f5f5;fontColor=#333333;strokeColor=#666666;" vertex="1" parent="1">
          <mxGeometry x="410" y="70" width="120" height="80" as="geometry" />
        </mxCell>
        <mxCell id="Zp2dqgJfaOYoI4d0qeHx-18" value="&lt;i&gt;&lt;font style=&quot;font-size: 10px;&quot;&gt;Trace&lt;/font&gt;&lt;/i&gt;" style="text;html=1;strokeColor=none;fillColor=none;align=center;verticalAlign=middle;whiteSpace=wrap;rounded=0;" vertex="1" parent="1">
          <mxGeometry x="256" y="150" width="60" height="30" as="geometry" />
        </mxCell>
        <mxCell id="Zp2dqgJfaOYoI4d0qeHx-19" value="&lt;i&gt;&lt;font style=&quot;font-size: 10px;&quot;&gt;Trace&lt;/font&gt;&lt;/i&gt;" style="text;html=1;strokeColor=none;fillColor=none;align=center;verticalAlign=middle;whiteSpace=wrap;rounded=0;" vertex="1" parent="1">
          <mxGeometry x="356" y="190" width="60" height="30" as="geometry" />
        </mxCell>
        <mxCell id="Zp2dqgJfaOYoI4d0qeHx-20" value="&lt;span style=&quot;font-size: 10px;&quot;&gt;&lt;i&gt;Event&lt;/i&gt;&lt;/span&gt;" style="text;html=1;strokeColor=none;fillColor=none;align=center;verticalAlign=middle;whiteSpace=wrap;rounded=0;" vertex="1" parent="1">
          <mxGeometry x="356" y="240" width="60" height="30" as="geometry" />
        </mxCell>
        <mxCell id="Zp2dqgJfaOYoI4d0qeHx-22" value="&lt;span style=&quot;font-size: 10px;&quot;&gt;&lt;i&gt;Event&lt;/i&gt;&lt;/span&gt;" style="text;html=1;strokeColor=none;fillColor=none;align=center;verticalAlign=middle;whiteSpace=wrap;rounded=0;" vertex="1" parent="1">
          <mxGeometry x="363" y="74" width="60" height="30" as="geometry" />
        </mxCell>
        <mxCell id="Zp2dqgJfaOYoI4d0qeHx-23" style="edgeStyle=none;rounded=0;orthogonalLoop=1;jettySize=auto;html=1;entryX=1;entryY=0.5;entryDx=0;entryDy=0;startArrow=classic;startFill=1;endArrow=none;endFill=0;exitX=0.082;exitY=0.498;exitDx=0;exitDy=0;exitPerimeter=0;dashed=1;" edge="1" parent="1">
          <mxGeometry relative="1" as="geometry">
            <mxPoint x="420.84000000000003" y="125.83999999999997" as="sourcePoint" />
            <mxPoint x="361" y="126" as="targetPoint" />
          </mxGeometry>
        </mxCell>
        <mxCell id="Zp2dqgJfaOYoI4d0qeHx-24" value="&lt;span style=&quot;font-size: 10px;&quot;&gt;&lt;i&gt;Event&lt;/i&gt;&lt;/span&gt;" style="text;html=1;strokeColor=none;fillColor=none;align=center;verticalAlign=middle;whiteSpace=wrap;rounded=0;" vertex="1" parent="1">
          <mxGeometry x="360" y="120" width="60" height="30" as="geometry" />
        </mxCell>
      </root>
    </mxGraphModel>
  </diagram>
  <diagram id="208x0wZQbnayfWzlfYj6" name="DetailedOverview">
    <mxGraphModel dx="1038" dy="539" grid="1" gridSize="10" guides="1" tooltips="1" connect="1" arrows="1" fold="1" page="1" pageScale="1" pageWidth="850" pageHeight="1100" math="0" shadow="0">
      <root>
        <mxCell id="0" />
        <mxCell id="1" parent="0" />
      </root>
    </mxGraphModel>
  </diagram>
</mxfile>
